{"title":"300 Rise Of An Empire 2014 CAM x264 AC3 TiTAN","uid":9754135,"size":881028010,"categoryP":"video","categoryS":"movies","magnet":"?xt=urn:btih:ba2206615c174177ac7f6947c2b82a36c7d0c5d9&amp;dn=300+Rise+Of+An+Empire+2014+CAM+x264+AC3+TiTAN&amp;tr=udp%3A%2F%2Ftracker.openbittorrent.com%3A80&amp;tr=udp%3A%2F%2Fopen.demonii.com%3A1337&amp;tr=udp%3A%2F%2Ftracker.coppersurfer.tk%3A6969&amp;tr=udp%3A%2F%2Fexodus.desync.com%3A6969","seeders":2,"leechers":0,"uploader":".SceNe.","files":2,"time":1394702987,"description":" &lt;a href=&quot;http://i.imgur.com/kvRr34N.jpg&quot; rel=&quot;nofollow&quot; target=&quot;_NEW&quot;&gt;http://i.imgur.com/kvRr34N.jpg&lt;/a&gt;\n &lt;a href=&quot;\nhttp://www.imdb.com/title/tt1253863/&quot; rel=&quot;nofollow&quot; target=&quot;_NEW&quot;&gt;\nhttp://www.imdb.com/title/tt1253863/&lt;/a&gt;\n\nSource: A Friend (Cheers Bro)\n\nOk:  Source is complete and way better than whats out.. but still was very low bit-rate low frame rate.. and very white washed.\nwent ahead and cropped, changed frame rate, which helped, but it cant be fixed completely.. also i had to actually darken this up as it was extremely bright.. overall came out descent.. Does have hc subs also. So Enjoy or wait for better source\n\nGeneral\n\nFormat version                           : Version 2\nFile size                                : 840 MiB\nDuration                                 : 1h 33mn\nOverall bit rate mode                    : Variable\nOverall bit rate                         : 1 256 Kbps\nEncoded date                             : UTC 2014-03-11 13:19:22\nWriting application                      : mkvmerge v6.8.0 ('Theme for Great Cities') 32bit built on Mar  2 2014 21:27:07\nWriting library                          : libebml v1.3.0 + libmatroska v1.4.1\n\nVideo\nID                                       : 1\nFormat                                   : AVC\nFormat/Info                              : Advanced Video Codec\nFormat profile                           : &lt;a class=&quot;__cf_email__&quot; href=&quot;/cdn-cgi/l/email-protection&quot; data-cfemail=&quot;88c0e1efe0c8c4bca6b9&quot;&gt;[email&amp;#160;protected]&lt;/a&gt;&lt;script cf-hash='f9e31' type=&quot;text/javascript&quot;&gt;\n/* &lt;![CDATA[ */!function(){try{var t=&quot;currentScript&quot;in document?document.currentScript:function(){for(var t=document.getElementsByTagName(&quot;script&quot;),e=t.length;e--;)if(t[e].getAttribute(&quot;cf-hash&quot;))return t[e]}();if(t&amp;&amp;t.previousSibling){var e,r,n,i,c=t.previousSibling,a=c.getAttribute(&quot;data-cfemail&quot;);if(a){for(e=&quot;&quot;,r=parseInt(a.substr(0,2),16),n=2;a.length-n;n+=2)i=parseInt(a.substr(n,2),16)^r,e+=String.fromCharCode(i);e=document.createTextNode(e),c.parentNode.replaceChild(e,c)}}}catch(u){}}();/* ]]&gt; */&lt;/script&gt;\nFormat settings, CABAC                   : Yes\nFormat settings, ReFrames                : 3 frames\nCodec ID                                 : V_MPEG4/ISO/AVC\nDuration                                 : 1h 33mn\nBit rate mode                            : Variable\nBit rate                                 : 1 039 Kbps\nMaximum bit rate                         : 40.0 Mbps\nWidth                                    : 704 pixels\nHeight                                   : 304 pixels\nDisplay aspect ratio                     : 2.35:1\nFrame rate mode                          : Constant\nFrame rate                               : 29.970 fps\nColor space                              : YUV\nChroma subsampling                       : 4:2:0\nBit depth                                : 8 bits\nScan type                                : Progressive\nBits/(Pixel*Frame)                       : 0.162\nStream size                              : 695 MiB (83%)\nWriting library                          : x264 core 140 r2377 1ca7bb9\nDefault                                  : Yes\nForced                                   : No\nColor primaries                          : BT.709\nTransfer characteristics                 : BT.709\nMatrix coefficients                      : BT.709\n\nAudio\nID                                       : 2\nFormat                                   : AC-3\nFormat/Info                              : Audio Coding 3\nMode extension                           : CM (complete main)\nFormat settings, Endianness              : Big\nCodec ID                                 : A_AC3\nDuration                                 : 1h 33mn\nBit rate mode                            : Constant\nBit rate                                 : 192 Kbps\nChannel(s)                               : 2 channels\nChannel positions                        : Front: L R\nSampling rate                            : 48.0 KHz\nBit depth                                : 16 bits\nCompression mode                         : Lossy\nStream size                              : 128 MiB (15%)\nDefault                                  : Yes\nForced                                   : No\n &lt;a href=&quot;\nhttp://i.imgur.com/9W6b4cM.png&quot; rel=&quot;nofollow&quot; target=&quot;_NEW&quot;&gt;\nhttp://i.imgur.com/9W6b4cM.png&lt;/a&gt; &lt;a href=&quot;\nhttp://i.imgur.com/ney9HZQ.png&quot; rel=&quot;nofollow&quot; target=&quot;_NEW&quot;&gt;\nhttp://i.imgur.com/ney9HZQ.png&lt;/a&gt; &lt;a href=&quot;\nhttp://i.imgur.com/fSf6ZTH.png&quot; rel=&quot;nofollow&quot; target=&quot;_NEW&quot;&gt;\nhttp://i.imgur.com/fSf6ZTH.png&lt;/a&gt; &lt;a href=&quot;\nhttp://i.imgur.com/fDaxkI0.png&quot; rel=&quot;nofollow&quot; target=&quot;_NEW&quot;&gt;\nhttp://i.imgur.com/fDaxkI0.png&lt;/a&gt; &lt;a href=&quot;\nhttp://i.imgur.com/crxnt6z.png&quot; rel=&quot;nofollow&quot; target=&quot;_NEW&quot;&gt;\nhttp://i.imgur.com/crxnt6z.png&lt;/a&gt;","torrent":{"xt":"urn:btih:ba2206615c174177ac7f6947c2b82a36c7d0c5d9","amp;dn":"300+Rise+Of+An+Empire+2014+CAM+x264+AC3+TiTAN","amp;tr":["udp%3A%2F%2Ftracker.openbittorrent.com%3A80","udp%3A%2F%2Fopen.demonii.com%3A1337","udp%3A%2F%2Ftracker.coppersurfer.tk%3A6969","udp%3A%2F%2Fexodus.desync.com%3A6969"],"infoHash":"ba2206615c174177ac7f6947c2b82a36c7d0c5d9","infoHashBuffer":{"type":"Buffer","data":[186,34,6,97,92,23,65,119,172,127,105,71,194,184,42,54,199,208,197,217]},"announce":[],"urlList":[]}}